<svg width="126" height="70" viewBox="0 0 126 70" fill="none" xmlns="http://www.w3.org/2000/svg">
<g clip-path="url(#clip0_5287_9344)">
<path d="M125.304 0H0V69.2062H125.304V0Z" fill="white"/>
<path fill-rule="evenodd" clip-rule="evenodd" d="M1.26562 0.000488281H67.0228V43.9883H1.26562V0.000488281Z" fill="#0E4194"/>
<path fill-rule="evenodd" clip-rule="evenodd" d="M34.6277 6.40561H36.5221L34.9947 7.55275L35.5859 9.36912L34.065 8.25404L32.5442 9.36912L33.1431 7.55275L31.6025 6.40561H33.4954L34.065 4.63464L34.6277 6.40561Z" fill="#FFF200"/>
<path fill-rule="evenodd" clip-rule="evenodd" d="M34.7087 35.7178H36.6042L35.0806 36.8623L35.6691 38.6815L34.1509 37.5607L32.6272 38.6815L33.2296 36.8623L31.6873 35.7178H33.5761L34.1509 33.9471L34.7087 35.7178Z" fill="#FFF200"/>
<path fill-rule="evenodd" clip-rule="evenodd" d="M41.9644 33.7761H43.8612L42.3326 34.9206L42.926 36.7344L41.4058 35.6167L39.8793 36.7344L40.481 34.9206L38.9402 33.7761H40.8331L41.4058 32.0002L41.9644 33.7761Z" fill="#FFF200"/>
<path fill-rule="evenodd" clip-rule="evenodd" d="M41.9644 8.33859H43.8612L42.3326 9.48598L42.926 11.2969L41.4058 10.1818L39.8793 11.2969L40.481 9.48598L38.9402 8.33859H40.8331L41.4058 6.56787L41.9644 8.33859Z" fill="#FFF200"/>
<path fill-rule="evenodd" clip-rule="evenodd" d="M47.3519 13.7211H49.2433L47.72 14.8656L48.3136 16.6875L46.7931 15.5671L45.2695 16.6875L45.8675 14.8656L44.3262 13.7211H46.2179L46.7931 11.953L47.3519 13.7211Z" fill="#FFF200"/>
<path fill-rule="evenodd" clip-rule="evenodd" d="M47.3519 28.4604H49.2433L47.72 29.6049L48.3136 31.4218L46.7931 30.3064L45.2695 31.4218L45.8675 29.6049L44.3262 28.4604H46.2179L46.7931 26.6899L47.3519 28.4604Z" fill="#FFF200"/>
<path fill-rule="evenodd" clip-rule="evenodd" d="M49.3696 20.9798H51.2652L49.7392 22.1243L50.329 23.9434L48.8108 22.8258L47.2887 23.9434L47.8893 22.1243L46.3508 20.9798H48.2371L48.8108 19.2063L49.3696 20.9798Z" fill="#FFF200"/>
<path fill-rule="evenodd" clip-rule="evenodd" d="M27.2265 8.35744H29.1233L27.5947 9.50458L28.1885 11.3184L26.6678 10.198L25.1458 11.3184L25.746 9.50458L24.208 8.35744H26.0957L26.6678 6.58411L27.2265 8.35744Z" fill="#FFF200"/>
<path fill-rule="evenodd" clip-rule="evenodd" d="M21.9897 13.7403H23.8869L22.3578 14.8847L22.9517 16.7012L21.431 15.5836L19.9099 16.7012L20.5094 14.8847L18.9683 13.7403H20.8583L21.431 11.9722L21.9897 13.7403Z" fill="#FFF200"/>
<path fill-rule="evenodd" clip-rule="evenodd" d="M20.0475 20.998H21.9389L20.4168 22.1429L21.0081 23.9589L19.4883 22.8414L17.968 23.9589L18.5641 22.1429L17.0247 20.998H18.9135L19.4883 19.2275L20.0475 20.998Z" fill="#FFF200"/>
<path fill-rule="evenodd" clip-rule="evenodd" d="M21.9897 28.4803H23.8869L22.3578 29.6248L22.9517 31.4414L21.431 30.3232L19.9099 31.4414L20.5094 29.6248L18.9683 28.4803H20.8583L21.431 26.7095L21.9897 28.4803Z" fill="#FFF200"/>
<path fill-rule="evenodd" clip-rule="evenodd" d="M27.3019 33.7911H29.1974L27.67 34.9385L28.2613 36.752L26.7431 35.634L25.2195 36.752L25.8213 34.9385L24.2805 33.7911H26.1705L26.7431 32.0175L27.3019 33.7911Z" fill="#FFF200"/>
<path fill-rule="evenodd" clip-rule="evenodd" d="M123.744 28.9718C123.741 28.9718 123.741 28.9691 123.741 28.9691C123.741 28.9847 123.744 28.9981 123.744 29.0137C123.744 28.9981 123.744 28.9847 123.744 28.9718Z" fill="white"/>
<path fill-rule="evenodd" clip-rule="evenodd" d="M103.966 8.76581C109.097 9.24129 113.827 10.9197 117.914 13.49C117.919 13.4952 118.027 13.5699 118.196 13.6777C113.03 6.30621 104.699 1.14461 94.934 0.239963C86.3874 -0.546711 78.3347 2.06764 72.1448 6.94868C76.8436 7.8815 80.9744 10.2411 84.1178 13.5211C89.8269 9.91987 96.7258 8.09752 103.966 8.76581Z" fill="#0076BE"/>
<path fill-rule="evenodd" clip-rule="evenodd" d="M123.744 29.3354C123.736 29.2349 123.7 28.7956 123.692 28.7056C123.211 23.1997 121.263 18.0486 118.196 13.6786C118.027 13.5708 117.919 13.4961 117.914 13.4909C113.827 10.9206 109.097 9.24223 103.967 8.76675C96.7259 8.09846 89.827 9.92081 84.1179 13.522C87.6499 17.2081 89.9402 22.0507 90.3874 27.3559C90.4977 28.6774 90.5003 30.0293 90.3743 31.4017C90.1741 33.5482 89.6857 35.5995 88.9425 37.5115C87.6009 41.0022 85.4262 44.0509 82.689 46.4492L82.7375 46.4053C93.2636 40.3084 106.313 37.684 119.176 39.635C118.009 40.738 116.256 41.676 114.829 42.4163C116.567 41.9637 122.677 39.5243 122.764 39.3392C122.764 39.3392 122.769 39.3366 122.769 39.3344H122.764C122.764 39.3344 124.191 34.7179 123.744 29.3354Z" fill="#1A1A18"/>
<path fill-rule="evenodd" clip-rule="evenodd" d="M123.181 28.6105C119.109 25.8546 115.752 24.1888 108.663 23.5308C103.273 23.0324 98.0704 23.914 93.415 25.8804C93.5332 27.1811 93.5437 28.5126 93.4177 29.8619C92.8111 36.4039 89.3309 41.9789 84.3391 45.4746C97.2478 38.0512 108.984 37.0593 118.924 38.5757C119.585 38.6783 121.628 39.0309 122.572 39.2828C123.728 33.4631 123.324 29.6127 123.181 28.6105Z" fill="white"/>
<path d="M97.5099 52.4239V47.6479H100.963V48.2115H98.1419V49.6744H100.784V50.2346H98.1419V51.8602H101.074V52.4239H97.5099ZM104.24 51.3097L104.846 51.3847C104.751 51.7387 104.574 52.0134 104.315 52.2089C104.057 52.4044 103.727 52.502 103.325 52.502C102.819 52.502 102.417 52.3468 102.12 52.0363C101.824 51.7235 101.677 51.2859 101.677 50.7234C101.677 50.1413 101.826 49.6895 102.126 49.368C102.426 49.0466 102.815 48.8859 103.292 48.8859C103.755 48.8859 104.133 49.0433 104.426 49.3583C104.719 49.6732 104.866 50.1163 104.866 50.6875C104.866 50.7223 104.865 50.7743 104.863 50.8438H102.283C102.304 51.2239 102.412 51.5149 102.605 51.7169C102.798 51.9189 103.039 52.02 103.328 52.02C103.543 52.02 103.727 51.9634 103.879 51.8505C104.031 51.7375 104.151 51.5573 104.24 51.3097ZM102.315 50.3617H104.247C104.221 50.0706 104.147 49.8524 104.025 49.7068C103.839 49.481 103.596 49.368 103.299 49.368C103.03 49.368 102.803 49.4583 102.618 49.6385C102.436 49.8188 102.335 50.0598 102.315 50.3617ZM105.351 51.3912L105.931 51.2999C105.964 51.5323 106.054 51.7105 106.202 51.8343C106.351 51.9581 106.56 52.02 106.827 52.02C107.096 52.02 107.296 51.9656 107.427 51.857C107.557 51.7462 107.622 51.617 107.622 51.4693C107.622 51.3368 107.564 51.2327 107.449 51.1567C107.369 51.1045 107.169 51.0383 106.85 50.9579C106.42 50.8493 106.121 50.7558 105.954 50.6777C105.789 50.5973 105.663 50.4876 105.576 50.3486C105.491 50.2075 105.449 50.0523 105.449 49.8829C105.449 49.7287 105.484 49.5864 105.553 49.4561C105.625 49.3236 105.722 49.2138 105.843 49.127C105.934 49.0596 106.058 49.0032 106.215 48.9576C106.373 48.9098 106.543 48.8859 106.723 48.8859C106.994 48.8859 107.232 48.9251 107.436 49.0033C107.643 49.0814 107.795 49.1878 107.892 49.3224C107.99 49.4549 108.057 49.6331 108.094 49.8568L107.521 49.9349C107.495 49.7568 107.419 49.6178 107.293 49.5179C107.169 49.418 106.993 49.368 106.765 49.368C106.496 49.368 106.304 49.4126 106.189 49.5016C106.073 49.5906 106.016 49.695 106.016 49.8144C106.016 49.8905 106.04 49.9588 106.088 50.0196C106.135 50.0826 106.21 50.1347 106.312 50.176C106.371 50.1977 106.544 50.2477 106.83 50.3259C107.245 50.4367 107.534 50.5278 107.697 50.5995C107.862 50.669 107.991 50.7711 108.085 50.9058C108.178 51.0405 108.225 51.2076 108.225 51.4074C108.225 51.6029 108.167 51.7876 108.052 51.9613C107.939 52.1329 107.775 52.2664 107.56 52.3619C107.345 52.4553 107.102 52.502 106.83 52.502C106.381 52.502 106.038 52.4087 105.801 52.2219C105.566 52.0352 105.416 51.7583 105.351 51.3912ZM110.202 51.8993L110.287 52.4174C110.122 52.4522 109.974 52.4694 109.844 52.4694C109.631 52.4694 109.466 52.4359 109.349 52.3685C109.231 52.3012 109.149 52.2132 109.101 52.1046C109.053 51.9938 109.029 51.7626 109.029 51.4108V49.4202H108.599V48.9641H109.029V48.1073L109.613 47.7555V48.9641H110.202V49.4202H109.613V51.4432C109.613 51.6105 109.622 51.7181 109.642 51.7659C109.664 51.8135 109.697 51.8515 109.743 51.8798C109.791 51.908 109.858 51.9221 109.945 51.9221C110.01 51.9221 110.096 51.9145 110.202 51.8993ZM110.782 48.3223V47.6479H111.368V48.3223H110.782ZM110.782 52.4239V48.9641H111.368V52.4239H110.782ZM84.9674 59.8993L85.0521 60.4174C84.8871 60.4522 84.7394 60.4694 84.6091 60.4694C84.3962 60.4694 84.2312 60.4359 84.1139 60.3685C83.9966 60.3012 83.9141 60.2132 83.8663 60.1046C83.8185 59.9938 83.7946 59.7626 83.7946 59.4108V57.4202H83.3646V56.9641H83.7946V56.1073L84.3778 55.7555V56.9641H84.9674V57.4202H84.3778V59.4432C84.3778 59.6105 84.3875 59.7181 84.4071 59.7659C84.4288 59.8135 84.4625 59.8515 84.5081 59.8798C84.5559 59.908 84.6232 59.9221 84.7101 59.9221C84.7752 59.9221 84.861 59.9145 84.9674 59.8993ZM87.8115 60.4239V59.9156C87.5422 60.3065 87.1762 60.502 86.7136 60.502C86.5094 60.502 86.3183 60.463 86.1402 60.3848C85.9643 60.3066 85.8329 60.2088 85.746 60.0915C85.6613 59.9721 85.6016 59.8266 85.5669 59.655C85.543 59.5399 85.531 59.3574 85.531 59.1077V56.9641H86.1174V58.8829C86.1174 59.1891 86.1294 59.3955 86.1533 59.5019C86.1902 59.6561 86.2684 59.7777 86.3878 59.8667C86.5073 59.9536 86.655 59.9972 86.8309 59.9972C87.0068 59.9972 87.1719 59.9525 87.3261 59.8635C87.4803 59.7723 87.5889 59.6496 87.6518 59.4954C87.717 59.339 87.7496 59.1131 87.7496 58.8177V56.9641H88.336V60.4239H87.8115ZM89.2449 60.4239V55.6479H89.8313V60.4239H89.2449ZM93.1119 59.3097L93.7178 59.3847C93.6223 59.7387 93.4452 60.0134 93.1868 60.2089C92.9283 60.4044 92.5982 60.502 92.1964 60.502C91.6904 60.502 91.2886 60.3468 90.9911 60.0363C90.6957 59.7235 90.548 59.2859 90.548 58.7234C90.548 58.1413 90.6979 57.6895 90.9976 57.368C91.2973 57.0466 91.686 56.8859 92.1639 56.8859C92.6265 56.8859 93.0044 57.0433 93.2976 57.3583C93.5908 57.6732 93.7374 58.1163 93.7374 58.6875C93.7374 58.7222 93.7363 58.7743 93.7341 58.8438H91.1539C91.1757 59.2239 91.2832 59.5149 91.4765 59.7169C91.6698 59.9189 91.9108 60.02 92.1997 60.02C92.4147 60.02 92.5982 59.9634 92.7503 59.8505C92.9023 59.7375 93.0228 59.5573 93.1119 59.3097ZM91.1865 58.3617H93.1184C93.0923 58.0706 93.0185 57.8524 92.8969 57.7068C92.7101 57.481 92.4679 57.368 92.1704 57.368C91.9011 57.368 91.6741 57.4583 91.4895 57.6385C91.3071 57.8188 91.2061 58.0598 91.1865 58.3617ZM95.4184 60.4239L94.1022 56.9641H94.7212L95.464 59.036C95.5443 59.2597 95.6182 59.4921 95.6855 59.7332C95.7376 59.5507 95.8104 59.3314 95.9038 59.0751L96.6726 56.9641H97.2753L95.9657 60.4239H95.4184ZM97.7966 56.3223V55.6479H98.3829V56.3223H97.7966ZM97.7966 60.4239V56.9641H98.3829V60.4239H97.7966ZM99.2821 60.4239V55.6479H99.8685V58.3714L101.256 56.9641H102.015L100.693 58.2477L102.149 60.4239H101.426L100.282 58.6549L99.8685 59.0523V60.4239H99.2821ZM104.882 60.4239V59.9156C104.613 60.3065 104.247 60.502 103.784 60.502C103.58 60.502 103.389 60.463 103.211 60.3848C103.035 60.3066 102.904 60.2088 102.817 60.0915C102.732 59.9721 102.672 59.8266 102.638 59.655C102.614 59.5399 102.602 59.3574 102.602 59.1077V56.9641H103.188V58.8829C103.188 59.1891 103.2 59.3955 103.224 59.5019C103.261 59.6561 103.339 59.7777 103.459 59.8667C103.578 59.9536 103.726 59.9972 103.902 59.9972C104.078 59.9972 104.243 59.9525 104.397 59.8635C104.551 59.7723 104.66 59.6496 104.723 59.4954C104.788 59.339 104.82 59.1131 104.82 58.8177V56.9641H105.407V60.4239H104.882ZM108.186 60.4239V55.6479H108.772V57.3615C109.046 57.0444 109.391 56.8859 109.808 56.8859C110.064 56.8859 110.287 56.937 110.476 57.0391C110.665 57.139 110.799 57.278 110.88 57.4561C110.962 57.6342 111.004 57.8925 111.004 58.2313V60.4239H110.417V58.2313C110.417 57.9382 110.353 57.7253 110.225 57.5928C110.099 57.4583 109.92 57.3909 109.687 57.3909C109.514 57.3909 109.35 57.4364 109.196 57.5277C109.043 57.6167 108.935 57.7384 108.87 57.8926C108.805 58.0468 108.772 58.2597 108.772 58.5312V60.4239H108.186ZM114.268 59.3097L114.874 59.3847C114.778 59.7387 114.601 60.0134 114.343 60.2089C114.084 60.4044 113.754 60.502 113.352 60.502C112.846 60.502 112.445 60.3468 112.147 60.0363C111.852 59.7235 111.704 59.2859 111.704 58.7234C111.704 58.1413 111.854 57.6895 112.154 57.368C112.453 57.0466 112.842 56.8859 113.32 56.8859C113.782 56.8859 114.16 57.0433 114.454 57.3583C114.747 57.6732 114.893 58.1163 114.893 58.6875C114.893 58.7222 114.892 58.7743 114.89 58.8438H112.31C112.332 59.2239 112.439 59.5149 112.632 59.7169C112.826 59.9189 113.067 60.02 113.356 60.02C113.571 60.02 113.754 59.9634 113.906 59.8505C114.058 59.7375 114.179 59.5573 114.268 59.3097ZM112.343 58.3617H114.274C114.248 58.0706 114.174 57.8524 114.053 57.7068C113.866 57.481 113.624 57.368 113.326 57.368C113.057 57.368 112.83 57.4583 112.645 57.6385C112.463 57.8188 112.362 58.0598 112.343 58.3617ZM117.871 59.9972C117.654 60.1818 117.444 60.312 117.242 60.3881C117.042 60.4641 116.827 60.502 116.597 60.502C116.217 60.502 115.925 60.4098 115.721 60.2252C115.517 60.0384 115.415 59.8005 115.415 59.5117C115.415 59.3422 115.453 59.188 115.529 59.049C115.607 58.9079 115.708 58.795 115.832 58.7103C115.958 58.6256 116.099 58.5616 116.255 58.5181C116.37 58.4877 116.544 58.4583 116.776 58.4301C117.25 58.3736 117.598 58.3063 117.822 58.2281C117.824 58.1477 117.825 58.0968 117.825 58.0751C117.825 57.8362 117.77 57.6677 117.659 57.57C117.509 57.4375 117.287 57.3713 116.991 57.3713C116.716 57.3713 116.511 57.4202 116.379 57.5179C116.249 57.6135 116.152 57.7839 116.089 58.0294L115.516 57.9512C115.568 57.7058 115.654 57.5081 115.773 57.3583C115.892 57.2062 116.065 57.0901 116.291 57.0098C116.517 56.9272 116.779 56.8859 117.076 56.8859C117.371 56.8859 117.611 56.9207 117.796 56.9902C117.981 57.0597 118.116 57.1477 118.203 57.2541C118.29 57.3584 118.351 57.4908 118.386 57.6516C118.405 57.7515 118.415 57.9316 118.415 58.1923V58.9741C118.415 59.5193 118.427 59.8647 118.451 60.0102C118.477 60.1535 118.527 60.2914 118.601 60.4239H117.988C117.927 60.3023 117.888 60.16 117.871 59.9972ZM117.822 58.6875C117.609 58.7744 117.29 58.8483 116.864 58.909C116.623 58.9438 116.453 58.9828 116.353 59.0262C116.253 59.0697 116.176 59.1337 116.122 59.2185C116.067 59.301 116.04 59.3933 116.04 59.4954C116.04 59.6517 116.099 59.782 116.216 59.8863C116.335 59.9905 116.509 60.0428 116.737 60.0428C116.963 60.0428 117.164 59.9938 117.34 59.8961C117.516 59.7962 117.645 59.6604 117.728 59.4888C117.791 59.3565 117.822 59.161 117.822 58.9025V58.6875ZM119.33 60.4239V55.6479H119.917V58.3714L121.305 56.9641H122.064L120.741 58.2477L122.197 60.4239H121.474L120.331 58.6549L119.917 59.0523V60.4239H119.33ZM122.429 59.3912L123.008 59.2999C123.041 59.5323 123.131 59.7105 123.279 59.8343C123.429 59.9581 123.637 60.02 123.904 60.02C124.174 60.02 124.373 59.9656 124.504 59.857C124.634 59.7462 124.699 59.617 124.699 59.4693C124.699 59.3368 124.642 59.2327 124.527 59.1567C124.446 59.1045 124.246 59.0383 123.927 58.9579C123.497 58.8493 123.199 58.7558 123.031 58.6777C122.866 58.5973 122.74 58.4876 122.653 58.3486C122.569 58.2075 122.526 58.0523 122.526 57.8829C122.526 57.7287 122.561 57.5864 122.631 57.4561C122.702 57.3236 122.799 57.2138 122.921 57.127C123.012 57.0596 123.136 57.0032 123.292 56.9576C123.45 56.9098 123.62 56.8859 123.8 56.8859C124.072 56.8859 124.309 56.925 124.514 57.0033C124.72 57.0814 124.872 57.1878 124.97 57.3224C125.067 57.4549 125.135 57.6331 125.172 57.8568L124.598 57.9349C124.572 57.7568 124.496 57.6178 124.37 57.5179C124.246 57.418 124.071 57.368 123.842 57.368C123.573 57.368 123.381 57.4126 123.266 57.5016C123.151 57.5906 123.093 57.695 123.093 57.8144C123.093 57.8905 123.117 57.9588 123.165 58.0196C123.213 58.0826 123.288 58.1347 123.39 58.176C123.448 58.1977 123.621 58.2477 123.908 58.3259C124.322 58.4367 124.611 58.5278 124.774 58.5995C124.939 58.669 125.068 58.7711 125.162 58.9058C125.255 59.0405 125.302 59.2076 125.302 59.4074C125.302 59.6029 125.244 59.7875 125.129 59.9613C125.016 60.1329 124.852 60.2664 124.637 60.3619C124.422 60.4553 124.179 60.502 123.908 60.502C123.458 60.502 123.115 60.4087 122.878 60.2219C122.644 60.0352 122.494 59.7583 122.429 59.3912Z" fill="#1A1A18"/>
<path d="M16.7077 52.4239V47.6479H20.161V48.2115H17.3397V49.6744H19.9818V50.2346H17.3397V51.8602H20.2717V52.4239H16.7077ZM23.3373 52.4239V51.9156C23.068 52.3065 22.702 52.502 22.2394 52.502C22.0353 52.502 21.8442 52.463 21.6661 52.3848C21.4901 52.3066 21.3587 52.2088 21.2719 52.0915C21.1872 51.9721 21.1274 51.8266 21.0927 51.655C21.0688 51.5399 21.0569 51.3575 21.0569 51.1077V48.9641H21.6433V50.8829C21.6433 51.1891 21.6552 51.3955 21.6791 51.5019C21.716 51.6561 21.7942 51.7777 21.9137 51.8667C22.0331 51.9536 22.1808 51.9972 22.3567 51.9972C22.5326 51.9972 22.6977 51.9525 22.8519 51.8635C23.0061 51.7723 23.1147 51.6496 23.1777 51.4954C23.2428 51.339 23.2754 51.1131 23.2754 50.8177V48.9641H23.8618V52.4239H23.3373ZM24.7772 52.4239V48.9641H25.305V49.4887C25.4397 49.2433 25.5634 49.0814 25.6764 49.0033C25.7915 48.9251 25.9175 48.8859 26.0543 48.8859C26.2519 48.8859 26.4528 48.9489 26.657 49.0748L26.455 49.6189C26.3116 49.5342 26.1683 49.4918 26.025 49.4918C25.8968 49.4918 25.7817 49.5309 25.6796 49.6091C25.5776 49.6851 25.5048 49.7915 25.4614 49.9284C25.3962 50.1369 25.3636 50.3649 25.3636 50.6125V52.4239H24.7772ZM26.7873 50.694C26.7873 50.0534 26.9654 49.5788 27.3216 49.2704C27.6191 49.0141 27.9818 48.8859 28.4097 48.8859C28.8853 48.8859 29.2741 49.0423 29.5759 49.355C29.8778 49.6656 30.0288 50.0956 30.0288 50.6451C30.0288 51.0903 29.9614 51.4411 29.8268 51.6973C29.6943 51.9515 29.4999 52.1491 29.2436 52.2903C28.9895 52.4314 28.7115 52.502 28.4097 52.502C27.9253 52.502 27.5333 52.3468 27.2336 52.0363C26.9361 51.7257 26.7873 51.2783 26.7873 50.694ZM27.39 50.694C27.39 51.1371 27.4866 51.4693 27.6799 51.6908C27.8732 51.9102 28.1165 52.02 28.4097 52.02C28.7007 52.02 28.9428 51.9091 29.1361 51.6876C29.3294 51.466 29.4261 51.1284 29.4261 50.6744C29.4261 50.2465 29.3283 49.923 29.1329 49.7037C28.9396 49.4822 28.6985 49.3713 28.4097 49.3713C28.1165 49.3713 27.8732 49.481 27.6799 49.7003C27.4866 49.9197 27.39 50.251 27.39 50.694ZM30.5011 50.694C30.5011 50.0534 30.6792 49.5788 31.0354 49.2704C31.333 49.0141 31.6957 48.8859 32.1235 48.8859C32.5992 48.8859 32.9879 49.0423 33.2898 49.355C33.5917 49.6656 33.7426 50.0956 33.7426 50.6451C33.7426 51.0903 33.6753 51.4411 33.5407 51.6973C33.4082 51.9515 33.2138 52.1491 32.9575 52.2903C32.7034 52.4314 32.4254 52.502 32.1235 52.502C31.6392 52.502 31.2472 52.3468 30.9475 52.0363C30.6499 51.7257 30.5011 51.2783 30.5011 50.694ZM31.1038 50.694C31.1038 51.1371 31.2005 51.4693 31.3938 51.6908C31.5871 51.9102 31.8303 52.02 32.1235 52.02C32.4145 52.02 32.6567 51.9091 32.85 51.6876C33.0433 51.466 33.1399 51.1284 33.1399 50.6744C33.1399 50.2465 33.0422 49.923 32.8467 49.7037C32.6535 49.4822 32.4124 49.3713 32.1235 49.3713C31.8303 49.3713 31.5871 49.481 31.3938 49.7003C31.2005 49.9197 31.1038 50.251 31.1038 50.694ZM34.4333 53.7497V48.9641H34.9676V49.4137C35.0935 49.2378 35.2358 49.1064 35.3943 49.0196C35.5529 48.9305 35.7451 48.8859 35.971 48.8859C36.2663 48.8859 36.5269 48.9619 36.7528 49.1139C36.9787 49.266 37.1492 49.481 37.2643 49.759C37.3794 50.0348 37.437 50.3378 37.437 50.6679C37.437 51.0219 37.3729 51.3413 37.2447 51.6258C37.1188 51.9081 36.9342 52.1252 36.6909 52.2772C36.4498 52.4271 36.1957 52.502 35.9286 52.502C35.7331 52.502 35.5572 52.4608 35.4008 52.3783C35.2466 52.2958 35.1196 52.1914 35.0197 52.0655V53.7497H34.4333ZM34.9643 50.7136C34.9643 51.1588 35.0544 51.4878 35.2347 51.7006C35.415 51.9134 35.6332 52.02 35.8895 52.02C36.1501 52.02 36.3727 51.9102 36.5574 51.6908C36.7441 51.4693 36.8375 51.1272 36.8375 50.6646C36.8375 50.2237 36.7463 49.8937 36.5639 49.6744C36.3836 49.455 36.1675 49.3452 35.9156 49.3452C35.6658 49.3452 35.4443 49.4626 35.251 49.6972C35.0599 49.9296 34.9643 50.2684 34.9643 50.7136ZM40.4048 51.9972C40.1876 52.1818 39.978 52.312 39.776 52.3881C39.5762 52.4641 39.3612 52.502 39.131 52.502C38.7509 52.502 38.4588 52.4098 38.2547 52.2252C38.0505 52.0384 37.9484 51.8005 37.9484 51.5117C37.9484 51.3422 37.9864 51.188 38.0624 51.049C38.1406 50.9079 38.2416 50.795 38.3654 50.7103C38.4914 50.6256 38.6326 50.5616 38.7889 50.5181C38.904 50.4877 39.0778 50.4583 39.3102 50.4301C39.7836 50.3736 40.1322 50.3063 40.3559 50.2281C40.3581 50.1477 40.3592 50.0968 40.3592 50.0751C40.3592 49.8362 40.3038 49.6677 40.193 49.57C40.0432 49.4375 39.8206 49.3713 39.5252 49.3713C39.2494 49.3713 39.0452 49.4202 38.9127 49.5179C38.7824 49.6135 38.6858 49.7839 38.6228 50.0294L38.0494 49.9512C38.1015 49.7058 38.1873 49.5081 38.3068 49.3583C38.4262 49.2062 38.5989 49.0901 38.8248 49.0098C39.0506 48.9272 39.3123 48.8859 39.6099 48.8859C39.9053 48.8859 40.1453 48.9207 40.3299 48.9902C40.5145 49.0597 40.6502 49.1477 40.7371 49.2541C40.824 49.3584 40.8848 49.4908 40.9195 49.6516C40.9391 49.7515 40.9488 49.9316 40.9488 50.1923V50.9741C40.9488 51.5193 40.9608 51.8647 40.9847 52.0102C41.0107 52.1535 41.0607 52.2914 41.1345 52.4239H40.5221C40.4613 52.3023 40.4222 52.16 40.4048 51.9972ZM40.3559 50.6875C40.1431 50.7744 39.8238 50.8482 39.3981 50.909C39.1571 50.9437 38.9866 50.9828 38.8867 51.0262C38.7868 51.0697 38.7097 51.1337 38.6554 51.2185C38.6011 51.301 38.5739 51.3933 38.5739 51.4954C38.5739 51.6517 38.6326 51.782 38.7498 51.8863C38.8693 51.9905 39.043 52.0428 39.2711 52.0428C39.497 52.0428 39.6979 51.9938 39.8738 51.8961C40.0497 51.7962 40.1789 51.6604 40.2614 51.4888C40.3244 51.3564 40.3559 51.161 40.3559 50.9025V50.6875ZM43.7668 52.4239V47.6479H44.3988V51.8602H46.7509V52.4239H43.7668ZM47.4351 48.3223V47.6479H48.0215V48.3223H47.4351ZM47.4351 52.4239V48.9641H48.0215V52.4239H47.4351ZM48.9206 48.3223V47.6479H49.507V48.3223H48.9206ZM48.9206 52.4239V48.9641H49.507V52.4239H48.9206ZM51.6832 51.8993L51.7679 52.4174C51.6029 52.4522 51.4552 52.4694 51.3249 52.4694C51.112 52.4694 50.947 52.4359 50.8297 52.3685C50.7124 52.3012 50.6299 52.2132 50.5821 52.1046C50.5343 51.9938 50.5104 51.7626 50.5104 51.4108V49.4202H50.0804V48.9641H50.5104V48.1073L51.0936 47.7555V48.9641H51.6832V49.4202H51.0936V51.4432C51.0936 51.6105 51.1033 51.7181 51.1229 51.7659C51.1446 51.8135 51.1783 51.8515 51.2239 51.8798C51.2716 51.908 51.339 51.9221 51.4258 51.9221C51.491 51.9221 51.5768 51.9145 51.6832 51.8993ZM21.9071 60.4239V55.6479H25.3604V56.2115H22.5391V57.6744H25.1812V58.2346H22.5391V59.8602H25.4711V60.4239H21.9071ZM28.5367 60.4239V59.9156C28.2674 60.3065 27.9014 60.502 27.4388 60.502C27.2347 60.502 27.0436 60.463 26.8655 60.3848C26.6896 60.3066 26.5582 60.2088 26.4713 60.0915C26.3866 59.9721 26.3269 59.8266 26.2921 59.655C26.2682 59.5399 26.2563 59.3574 26.2563 59.1077V56.9641H26.8427V58.8829C26.8427 59.1891 26.8546 59.3955 26.8785 59.5019C26.9154 59.6561 26.9936 59.7777 27.1131 59.8667C27.2325 59.9536 27.3802 59.9972 27.5561 59.9972C27.732 59.9972 27.8971 59.9525 28.0513 59.8635C28.2055 59.7723 28.3141 59.6496 28.3771 59.4954C28.4422 59.339 28.4748 59.1131 28.4748 58.8177V56.9641H29.0612V60.4239H28.5367ZM29.9766 60.4239V56.9641H30.5044V57.4887C30.6391 57.2433 30.7629 57.0814 30.8758 57.0033C30.9909 56.925 31.1169 56.8859 31.2537 56.8859C31.4513 56.8859 31.6522 56.9489 31.8564 57.0748L31.6544 57.6189C31.5111 57.5343 31.3677 57.4918 31.2244 57.4918C31.0962 57.4918 30.9811 57.5309 30.879 57.6091C30.777 57.6852 30.7042 57.7915 30.6608 57.9284C30.5956 58.1369 30.563 58.3649 30.563 58.6125V60.4239H29.9766ZM31.9867 58.694C31.9867 58.0534 32.1648 57.5788 32.521 57.2704C32.8185 57.0141 33.1812 56.8859 33.6091 56.8859C34.0847 56.8859 34.4735 57.0423 34.7754 57.355C35.0772 57.6656 35.2282 58.0956 35.2282 58.6451C35.2282 59.0903 35.1609 59.4411 35.0262 59.6973C34.8937 59.9515 34.6993 60.1491 34.4431 60.2903C34.189 60.4314 33.911 60.502 33.6091 60.502C33.1247 60.502 32.7327 60.3468 32.433 60.0363C32.1355 59.7257 31.9867 59.2783 31.9867 58.694ZM32.5894 58.694C32.5894 59.1371 32.686 59.4693 32.8793 59.6908C33.0726 59.9102 33.3159 60.02 33.6091 60.02C33.9001 60.02 34.1423 59.9091 34.3356 59.6876C34.5288 59.466 34.6255 59.1284 34.6255 58.6744C34.6255 58.2465 34.5278 57.923 34.3323 57.7037C34.139 57.4822 33.8979 57.3713 33.6091 57.3713C33.3159 57.3713 33.0726 57.481 32.8793 57.7003C32.686 57.9197 32.5894 58.251 32.5894 58.694ZM35.7006 58.694C35.7006 58.0534 35.8787 57.5788 36.2348 57.2704C36.5324 57.0141 36.8951 56.8859 37.3229 56.8859C37.7986 56.8859 38.1873 57.0423 38.4892 57.355C38.7911 57.6656 38.942 58.0956 38.942 58.6451C38.942 59.0903 38.8747 59.4411 38.7401 59.6973C38.6076 59.9515 38.4132 60.1491 38.1569 60.2903C37.9028 60.4314 37.6248 60.502 37.3229 60.502C36.8386 60.502 36.4466 60.3468 36.1469 60.0363C35.8493 59.7257 35.7006 59.2783 35.7006 58.694ZM36.3032 58.694C36.3032 59.1371 36.3999 59.4693 36.5932 59.6908C36.7865 59.9102 37.0297 60.02 37.3229 60.02C37.614 60.02 37.8561 59.9091 38.0494 59.6876C38.2427 59.466 38.3394 59.1284 38.3394 58.6744C38.3394 58.2465 38.2416 57.923 38.0462 57.7037C37.8529 57.4822 37.6118 57.3713 37.3229 57.3713C37.0297 57.3713 36.7865 57.481 36.5932 57.7003C36.3999 57.9197 36.3032 58.251 36.3032 58.694ZM39.6327 61.7497V56.9641H40.167V57.4137C40.2929 57.2378 40.4352 57.1063 40.5937 57.0196C40.7523 56.9305 40.9445 56.8859 41.1704 56.8859C41.4657 56.8859 41.7264 56.9619 41.9522 57.1139C42.1781 57.266 42.3486 57.481 42.4637 57.759C42.5788 58.0348 42.6364 58.3378 42.6364 58.6679C42.6364 59.0219 42.5723 59.3413 42.4442 59.6258C42.3182 59.9081 42.1336 60.1252 41.8903 60.2772C41.6493 60.4271 41.3952 60.502 41.128 60.502C40.9325 60.502 40.7566 60.4608 40.6003 60.3783C40.4461 60.2957 40.319 60.1914 40.2191 60.0655V61.7497H39.6327ZM40.1637 58.7136C40.1637 59.1588 40.2538 59.4878 40.4341 59.7006C40.6144 59.9134 40.8326 60.02 41.0889 60.02C41.3495 60.02 41.5722 59.9102 41.7568 59.6908C41.9435 59.4693 42.0369 59.1272 42.0369 58.6646C42.0369 58.2238 41.9457 57.8937 41.7633 57.6744C41.583 57.455 41.3669 57.3452 41.115 57.3452C40.8652 57.3452 40.6437 57.4626 40.4504 57.6972C40.2593 57.9296 40.1637 58.2684 40.1637 58.7136ZM45.6042 59.9972C45.387 60.1818 45.1774 60.312 44.9754 60.3881C44.7756 60.4641 44.5606 60.502 44.3304 60.502C43.9503 60.502 43.6582 60.4098 43.4541 60.2252C43.2499 60.0384 43.1478 59.8005 43.1478 59.5117C43.1478 59.3422 43.1858 59.188 43.2619 59.049C43.34 58.9079 43.441 58.795 43.5648 58.7103C43.6908 58.6256 43.832 58.5616 43.9883 58.5181C44.1035 58.4877 44.2772 58.4583 44.5096 58.4301C44.9831 58.3736 45.3316 58.3063 45.5553 58.2281C45.5575 58.1477 45.5586 58.0968 45.5586 58.0751C45.5586 57.8362 45.5032 57.6677 45.3924 57.57C45.2426 57.4375 45.02 57.3713 44.7246 57.3713C44.4488 57.3713 44.2446 57.4202 44.1121 57.5179C43.9818 57.6135 43.8852 57.7839 43.8222 58.0294L43.2488 57.9512C43.301 57.7058 43.3867 57.5081 43.5062 57.3583C43.6256 57.2062 43.7983 57.0901 44.0242 57.0098C44.2501 56.9272 44.5118 56.8859 44.8093 56.8859C45.1047 56.8859 45.3447 56.9207 45.5293 56.9902C45.7139 57.0597 45.8496 57.1477 45.9365 57.2541C46.0234 57.3584 46.0842 57.4908 46.1189 57.6516C46.1385 57.7515 46.1482 57.9316 46.1482 58.1923V58.9741C46.1482 59.5193 46.1602 59.8647 46.1841 60.0102C46.2101 60.1535 46.2601 60.2914 46.3339 60.4239H45.7215C45.6607 60.3023 45.6216 60.16 45.6042 59.9972ZM45.5553 58.6875C45.3425 58.7744 45.0232 58.8483 44.5975 58.909C44.3565 58.9438 44.186 58.9828 44.0861 59.0262C43.9862 59.0697 43.9091 59.1337 43.8548 59.2185C43.8005 59.301 43.7733 59.3933 43.7733 59.4954C43.7733 59.6517 43.832 59.782 43.9492 59.8863C44.0687 59.9905 44.2424 60.0428 44.4705 60.0428C44.6964 60.0428 44.8973 59.9938 45.0732 59.8961C45.2491 59.7962 45.3783 59.6604 45.4609 59.4888C45.5238 59.3565 45.5553 59.161 45.5553 58.9025V58.6875ZM0.552414 68.4238V63.6479H2.66996C3.09565 63.6479 3.41925 63.6914 3.64078 63.7782C3.86231 63.8629 4.03932 64.014 4.1718 64.2312C4.30428 64.4484 4.37052 64.6882 4.37052 64.951C4.37052 65.2898 4.26085 65.5754 4.04149 65.8078C3.82213 66.0403 3.48332 66.188 3.02506 66.2509C3.19229 66.3312 3.31935 66.4106 3.40622 66.4888C3.59083 66.6581 3.76566 66.8699 3.93072 67.1241L4.76146 68.4238H3.96656L3.33455 67.4302C3.14994 67.1435 2.99791 66.9243 2.87846 66.7722C2.75901 66.6202 2.6515 66.5138 2.55594 66.453C2.46255 66.3922 2.36699 66.3497 2.26926 66.3258C2.19759 66.3106 2.08031 66.3031 1.91742 66.3031H1.18442V68.4238H0.552414ZM1.18442 65.7557H2.54291C2.83177 65.7557 3.05764 65.7265 3.22053 65.6678C3.38342 65.607 3.50721 65.5115 3.59192 65.3812C3.67662 65.2487 3.71897 65.1052 3.71897 64.951C3.71897 64.7252 3.63644 64.5395 3.47138 64.394C3.30849 64.2484 3.05004 64.1757 2.69603 64.1757H1.18442V65.7557ZM7.65762 67.3097L8.26357 67.3846C8.16801 67.7386 7.991 68.0134 7.73255 68.2089C7.4741 68.4044 7.14398 68.502 6.74219 68.502C6.23614 68.502 5.83435 68.3468 5.53681 68.0363C5.24144 67.7235 5.09375 67.2858 5.09375 66.7233C5.09375 66.1412 5.24361 65.6895 5.54332 65.368C5.84304 65.0466 6.2318 64.886 6.70961 64.886C7.17221 64.886 7.55011 65.0433 7.84331 65.3583C8.13651 65.6732 8.28311 66.1163 8.28311 66.6875C8.28311 66.7222 8.28203 66.7744 8.27986 66.8439H5.6997C5.72142 67.224 5.82892 67.515 6.02222 67.717C6.21551 67.919 6.45659 68.0199 6.74544 68.0199C6.96046 68.0199 7.14398 67.9635 7.29601 67.8506C7.44804 67.7376 7.56857 67.5574 7.65762 67.3097ZM5.73227 66.3618H7.66414C7.63807 66.0707 7.56423 65.8525 7.44261 65.7069C7.25583 65.4811 7.01367 65.368 6.71612 65.368C6.44681 65.368 6.21986 65.4582 6.03525 65.6384C5.85281 65.8187 5.75182 66.0599 5.73227 66.3618ZM8.89558 68.7106L9.46569 68.7952C9.48958 68.9711 9.55582 69.0994 9.66441 69.1797C9.80992 69.2883 10.0086 69.3425 10.2606 69.3425C10.5321 69.3425 10.7416 69.2883 10.8893 69.1797C11.037 69.0711 11.1369 68.9191 11.189 68.7236C11.2195 68.6042 11.2336 68.3533 11.2314 67.9711C10.9751 68.273 10.6559 68.4238 10.2736 68.4238C9.79798 68.4238 9.42985 68.2524 9.16923 67.9092C8.90861 67.566 8.7783 67.1544 8.7783 66.6744C8.7783 66.3444 8.83802 66.0402 8.95747 65.7622C9.07692 65.4821 9.24959 65.266 9.47546 65.1139C9.7035 64.9619 9.97064 64.886 10.2769 64.886C10.6852 64.886 11.0218 65.051 11.2868 65.3812V64.9642H11.8276V67.9547C11.8276 68.4933 11.7722 68.8745 11.6614 69.0982C11.5528 69.3241 11.3791 69.5022 11.1402 69.6325C10.9035 69.7628 10.6113 69.828 10.2638 69.828C9.85119 69.828 9.51781 69.7345 9.2637 69.5478C9.0096 69.3632 8.88689 69.0842 8.89558 68.7106ZM9.38098 66.6322C9.38098 67.0861 9.47112 67.4173 9.65138 67.6258C9.83164 67.8343 10.0575 67.9384 10.329 67.9384C10.5983 67.9384 10.8242 67.8353 11.0066 67.6289C11.189 67.4204 11.2803 67.0948 11.2803 66.6517C11.2803 66.2282 11.1858 65.9089 10.9968 65.6939C10.8101 65.4789 10.5842 65.3713 10.3192 65.3713C10.0586 65.3713 9.83707 65.4777 9.65464 65.6906C9.4722 65.9012 9.38098 66.2152 9.38098 66.6322ZM12.7202 64.3224V63.6479H13.3066V64.3224H12.7202ZM12.7202 68.4238V64.9642H13.3066V68.4238H12.7202ZM13.9842 66.694C13.9842 66.0534 14.1623 65.5788 14.5185 65.2704C14.816 65.0141 15.1787 64.886 15.6066 64.886C16.0822 64.886 16.471 65.0424 16.7729 65.3551C17.0748 65.6657 17.2257 66.0957 17.2257 66.6452C17.2257 67.0904 17.1584 67.4412 17.0237 67.6974C16.8912 67.9516 16.6969 68.1491 16.4406 68.2903C16.1865 68.4314 15.9085 68.502 15.6066 68.502C15.1223 68.502 14.7303 68.3468 14.4305 68.0363C14.133 67.7257 13.9842 67.2782 13.9842 66.694ZM14.5869 66.694C14.5869 67.1371 14.6836 67.4694 14.8769 67.6909C15.0701 67.9103 15.3134 68.0199 15.6066 68.0199C15.8976 68.0199 16.1398 67.9091 16.3331 67.6876C16.5264 67.466 16.623 67.1283 16.623 66.6744C16.623 66.2465 16.5253 65.9229 16.3298 65.7036C16.1365 65.4821 15.8954 65.3713 15.6066 65.3713C15.3134 65.3713 15.0701 65.4811 14.8769 65.7004C14.6836 65.9198 14.5869 66.2509 14.5869 66.694ZM17.9164 68.4238V64.9642H18.4441V65.4561C18.6982 65.076 19.0653 64.886 19.5452 64.886C19.7537 64.886 19.9449 64.924 20.1186 65C20.2945 65.0737 20.4259 65.1715 20.5128 65.2931C20.5997 65.4147 20.6605 65.5593 20.6952 65.7265C20.717 65.8351 20.7278 66.0251 20.7278 66.2966V68.4238H20.1414V66.3193C20.1414 66.0804 20.1186 65.9024 20.073 65.7851C20.0274 65.6657 19.946 65.5712 19.8287 65.5017C19.7136 65.43 19.5778 65.3941 19.4214 65.3941C19.1717 65.3941 18.9556 65.4734 18.7732 65.6319C18.5929 65.7905 18.5028 66.0914 18.5028 66.5344V68.4238H17.9164ZM23.8879 67.9972C23.6707 68.1818 23.4611 68.312 23.2591 68.3881C23.0593 68.4641 22.8443 68.502 22.6141 68.502C22.234 68.502 21.9419 68.4097 21.7377 68.2251C21.5336 68.0383 21.4315 67.8006 21.4315 67.5118C21.4315 67.3423 21.4695 67.1881 21.5455 67.0491C21.6237 66.908 21.7247 66.7949 21.8485 66.7102C21.9745 66.6255 22.1156 66.5615 22.272 66.518C22.3871 66.4876 22.5609 66.4583 22.7932 66.4301C23.2667 66.3736 23.6153 66.3064 23.839 66.2282C23.8412 66.1478 23.8423 66.0967 23.8423 66.075C23.8423 65.8361 23.7869 65.6677 23.6761 65.57C23.5262 65.4375 23.3036 65.3713 23.0083 65.3713C22.7324 65.3713 22.5283 65.4202 22.3958 65.5179C22.2655 65.6135 22.1688 65.784 22.1059 66.0295L21.5325 65.9513C21.5846 65.7059 21.6704 65.5081 21.7899 65.3583C21.9093 65.2062 22.082 65.09 22.3078 65.0097C22.5337 64.9271 22.7954 64.886 23.093 64.886C23.3883 64.886 23.6283 64.9206 23.8129 64.9901C23.9975 65.0596 24.1333 65.1476 24.2202 65.254C24.307 65.3583 24.3678 65.4907 24.4026 65.6515C24.4221 65.7514 24.4319 65.9316 24.4319 66.1923V66.9741C24.4319 67.5193 24.4439 67.8647 24.4677 68.0102C24.4938 68.1535 24.5438 68.2913 24.6176 68.4238H24.0051C23.9443 68.3022 23.9052 68.16 23.8879 67.9972ZM23.839 66.6875C23.6262 66.7744 23.3069 66.8482 22.8812 66.909C22.6401 66.9437 22.4696 66.9828 22.3697 67.0262C22.2698 67.0697 22.1927 67.1337 22.1384 67.2185C22.0841 67.301 22.057 67.3933 22.057 67.4954C22.057 67.6517 22.1156 67.782 22.2329 67.8863C22.3524 67.9905 22.5261 68.0428 22.7542 68.0428C22.98 68.0428 23.1809 67.9939 23.3568 67.8962C23.5328 67.7963 23.662 67.6604 23.7445 67.4888C23.8075 67.3564 23.839 67.1609 23.839 66.9024V66.6875ZM27.6017 67.9972C27.3845 68.1818 27.175 68.312 26.973 68.3881C26.7732 68.4641 26.5582 68.502 26.3279 68.502C25.9479 68.502 25.6557 68.4097 25.4516 68.2251C25.2474 68.0383 25.1454 67.8006 25.1454 67.5118C25.1454 67.3423 25.1834 67.1881 25.2594 67.0491C25.3376 66.908 25.4386 66.7949 25.5624 66.7102C25.6883 66.6255 25.8295 66.5615 25.9859 66.518C26.101 66.4876 26.2747 66.4583 26.5071 66.4301C26.9806 66.3736 27.3292 66.3064 27.5529 66.2282C27.555 66.1478 27.5561 66.0967 27.5561 66.075C27.5561 65.8361 27.5007 65.6677 27.39 65.57C27.2401 65.4375 27.0175 65.3713 26.7221 65.3713C26.4463 65.3713 26.2421 65.4202 26.1097 65.5179C25.9794 65.6135 25.8827 65.784 25.8197 66.0295L25.2464 65.9513C25.2985 65.7059 25.3843 65.5081 25.5037 65.3583C25.6232 65.2062 25.7958 65.09 26.0217 65.0097C26.2476 64.9271 26.5093 64.886 26.8068 64.886C27.1022 64.886 27.3422 64.9206 27.5268 64.9901C27.7114 65.0596 27.8471 65.1476 27.934 65.254C28.0209 65.3583 28.0817 65.4907 28.1165 65.6515C28.136 65.7514 28.1458 65.9316 28.1458 66.1923V66.9741C28.1458 67.5193 28.1577 67.8647 28.1816 68.0102C28.2077 68.1535 28.2576 68.2913 28.3315 68.4238H27.719C27.6582 68.3022 27.6191 68.16 27.6017 67.9972ZM27.5529 66.6875C27.34 66.7744 27.0208 66.8482 26.5951 66.909C26.354 66.9437 26.1835 66.9828 26.0836 67.0262C25.9837 67.0697 25.9066 67.1337 25.8523 67.2185C25.798 67.301 25.7709 67.3933 25.7709 67.4954C25.7709 67.6517 25.8295 67.782 25.9468 67.8863C26.0662 67.9905 26.24 68.0428 26.468 68.0428C26.6939 68.0428 26.8948 67.9939 27.0707 67.8962C27.2466 67.7963 27.3759 67.6604 27.4584 67.4888C27.5214 67.3564 27.5529 67.1609 27.5529 66.9024V66.6875ZM29.0449 68.4238V63.6479H29.6313V68.4238H29.0449ZM32.8011 67.9972C32.584 68.1818 32.3744 68.312 32.1724 68.3881C31.9726 68.4641 31.7576 68.502 31.5273 68.502C31.1473 68.502 30.8552 68.4097 30.651 68.2251C30.4469 68.0383 30.3448 67.8006 30.3448 67.5118C30.3448 67.3423 30.3828 67.1881 30.4588 67.0491C30.537 66.908 30.638 66.7949 30.7618 66.7102C30.8877 66.6255 31.0289 66.5615 31.1853 66.518C31.3004 66.4876 31.4741 66.4583 31.7065 66.4301C32.18 66.3736 32.5286 66.3064 32.7523 66.2282C32.7544 66.1478 32.7555 66.0967 32.7555 66.075C32.7555 65.8361 32.7001 65.6677 32.5894 65.57C32.4395 65.4375 32.2169 65.3713 31.9215 65.3713C31.6457 65.3713 31.4416 65.4202 31.3091 65.5179C31.1788 65.6135 31.0821 65.784 31.0191 66.0295L30.4458 65.9513C30.4979 65.7059 30.5837 65.5081 30.7031 65.3583C30.8226 65.2062 30.9952 65.09 31.2211 65.0097C31.447 64.9271 31.7087 64.886 32.0062 64.886C32.3016 64.886 32.5416 64.9206 32.7262 64.9901C32.9108 65.0596 33.0466 65.1476 33.1334 65.254C33.2203 65.3583 33.2811 65.4907 33.3159 65.6515C33.3354 65.7514 33.3452 65.9316 33.3452 66.1923V66.9741C33.3452 67.5193 33.3571 67.8647 33.381 68.0102C33.4071 68.1535 33.457 68.2913 33.5309 68.4238H32.9184C32.8576 68.3022 32.8185 68.16 32.8011 67.9972ZM32.7523 66.6875C32.5394 66.7744 32.2202 66.8482 31.7945 66.909C31.5534 66.9437 31.3829 66.9828 31.283 67.0262C31.1831 67.0697 31.106 67.1337 31.0517 67.2185C30.9974 67.301 30.9703 67.3933 30.9703 67.4954C30.9703 67.6517 31.0289 67.782 31.1462 67.8863C31.2656 67.9905 31.4394 68.0428 31.6674 68.0428C31.8933 68.0428 32.0942 67.9939 32.2701 67.8962C32.446 67.7963 32.5753 67.6604 32.6578 67.4888C32.7208 67.3564 32.7523 67.1609 32.7523 66.9024V66.6875ZM34.2508 68.4238V64.9642H34.7786V65.4887C34.9133 65.2433 35.0371 65.0813 35.15 65.0032C35.2651 64.925 35.3911 64.886 35.5279 64.886C35.7255 64.886 35.9264 64.9489 36.1306 65.0748L35.9286 65.6189C35.7853 65.5342 35.6419 65.4918 35.4986 65.4918C35.3704 65.4918 35.2553 65.531 35.1533 65.6091C35.0512 65.6852 34.9784 65.7915 34.935 65.9284C34.8698 66.1369 34.8372 66.365 34.8372 66.6126V68.4238H34.2508ZM38.8476 67.3097L39.4535 67.3846C39.358 67.7386 39.1809 68.0134 38.9225 68.2089C38.664 68.4044 38.3339 68.502 37.9321 68.502C37.4261 68.502 37.0243 68.3468 36.7268 68.0363C36.4314 67.7235 36.2837 67.2858 36.2837 66.7233C36.2837 66.1412 36.4336 65.6895 36.7333 65.368C37.033 65.0466 37.4218 64.886 37.8996 64.886C38.3622 64.886 38.7401 65.0433 39.0333 65.3583C39.3265 65.6732 39.4731 66.1163 39.4731 66.6875C39.4731 66.7222 39.472 66.7744 39.4698 66.8439H36.8896C36.9114 67.224 37.0189 67.515 37.2122 67.717C37.4055 67.919 37.6465 68.0199 37.9354 68.0199C38.1504 68.0199 38.3339 67.9635 38.486 67.8506C38.638 67.7376 38.7585 67.5574 38.8476 67.3097ZM36.9222 66.3618H38.8541C38.828 66.0707 38.7542 65.8525 38.6326 65.7069C38.4458 65.4811 38.2036 65.368 37.9061 65.368C37.6368 65.368 37.4098 65.4582 37.2252 65.6384C37.0428 65.8187 36.9418 66.0599 36.9222 66.3618ZM40.193 68.4238V64.9642H40.7208V65.4561C40.9749 65.076 41.3419 64.886 41.8219 64.886C42.0304 64.886 42.2215 64.924 42.3953 65C42.5712 65.0737 42.7026 65.1715 42.7895 65.2931C42.8764 65.4147 42.9372 65.5593 42.9719 65.7265C42.9936 65.8351 43.0045 66.0251 43.0045 66.2966V68.4238H42.4181V66.3193C42.4181 66.0804 42.3953 65.9024 42.3497 65.7851C42.3041 65.6657 42.2226 65.5712 42.1053 65.5017C41.9902 65.43 41.8545 65.3941 41.6981 65.3941C41.4484 65.3941 41.2323 65.4734 41.0498 65.6319C40.8696 65.7905 40.7794 66.0914 40.7794 66.5344V68.4238H40.193ZM43.7994 68.7106L44.3695 68.7952C44.3934 68.9711 44.4596 69.0994 44.5682 69.1797C44.7137 69.2883 44.9125 69.3425 45.1644 69.3425C45.4359 69.3425 45.6455 69.2883 45.7931 69.1797C45.9408 69.0711 46.0407 68.9191 46.0929 68.7236C46.1233 68.6042 46.1374 68.3533 46.1352 67.9711C45.8789 68.273 45.5597 68.4238 45.1774 68.4238C44.7018 68.4238 44.3337 68.2524 44.073 67.9092C43.8124 67.566 43.6821 67.1544 43.6821 66.6744C43.6821 66.3444 43.7418 66.0402 43.8613 65.7622C43.9807 65.4821 44.1534 65.266 44.3793 65.1139C44.6073 64.9619 44.8745 64.886 45.1807 64.886C45.589 64.886 45.9256 65.051 46.1906 65.3812V64.9642H46.7314V67.9547C46.7314 68.4933 46.676 68.8745 46.5652 69.0982C46.4566 69.3241 46.2829 69.5022 46.044 69.6325C45.8073 69.7628 45.5151 69.828 45.1677 69.828C44.755 69.828 44.4216 69.7345 44.1675 69.5478C43.9134 69.3632 43.7907 69.0842 43.7994 68.7106ZM44.2848 66.6322C44.2848 67.0861 44.3749 67.4173 44.5552 67.6258C44.7355 67.8343 44.9613 67.9384 45.2328 67.9384C45.5021 67.9384 45.728 67.8353 45.9104 67.6289C46.0929 67.4204 46.1841 67.0948 46.1841 66.6517C46.1841 66.2282 46.0896 65.9089 45.9007 65.6939C45.7139 65.4789 45.488 65.3713 45.223 65.3713C44.9624 65.3713 44.7409 65.4777 44.5584 65.6906C44.376 65.9012 44.2848 66.2152 44.2848 66.6322ZM49.8882 68.4238V67.9157C49.6189 68.3066 49.2529 68.502 48.7903 68.502C48.5861 68.502 48.395 68.4629 48.2169 68.3847C48.041 68.3065 47.9096 68.2088 47.8227 68.0915C47.738 67.9721 47.6783 67.8266 47.6436 67.655C47.6197 67.5399 47.6077 67.3574 47.6077 67.1077V64.9642H48.1941V66.8829C48.1941 67.1891 48.2061 67.3955 48.23 67.5019C48.2669 67.6561 48.3451 67.7777 48.4645 67.8667C48.584 67.9536 48.7317 67.9972 48.9076 67.9972C49.0835 67.9972 49.2486 67.9526 49.4028 67.8636C49.557 67.7724 49.6656 67.6496 49.7285 67.4954C49.7937 67.339 49.8263 67.1132 49.8263 66.8178V64.9642H50.4127V68.4238H49.8882ZM53.2991 68.4238V63.6479H56.521V64.2116H53.9311V65.6906H56.1724V66.2541H53.9311V68.4238H53.2991ZM57.052 66.694C57.052 66.0534 57.2301 65.5788 57.5863 65.2704C57.8838 65.0141 58.2465 64.886 58.6744 64.886C59.15 64.886 59.5388 65.0424 59.8407 65.3551C60.1426 65.6657 60.2935 66.0957 60.2935 66.6452C60.2935 67.0904 60.2262 67.4412 60.0915 67.6974C59.959 67.9516 59.7647 68.1491 59.5084 68.2903C59.2543 68.4314 58.9763 68.502 58.6744 68.502C58.1901 68.502 57.7981 68.3468 57.4983 68.0363C57.2008 67.7257 57.052 67.2782 57.052 66.694ZM57.6547 66.694C57.6547 67.1371 57.7514 67.4694 57.9447 67.6909C58.1379 67.9103 58.3812 68.0199 58.6744 68.0199C58.9654 68.0199 59.2076 67.9091 59.4009 67.6876C59.5942 67.466 59.6908 67.1283 59.6908 66.6744C59.6908 66.2465 59.5931 65.9229 59.3976 65.7036C59.2043 65.4821 58.9633 65.3713 58.6744 65.3713C58.3812 65.3713 58.1379 65.4811 57.9447 65.7004C57.7514 65.9198 57.6547 66.2509 57.6547 66.694ZM60.9842 68.4238V64.9642H61.5119V65.4561C61.766 65.076 62.1331 64.886 62.613 64.886C62.8215 64.886 63.0127 64.924 63.1864 65C63.3623 65.0737 63.4937 65.1715 63.5806 65.2931C63.6675 65.4147 63.7283 65.5593 63.763 65.7265C63.7848 65.8351 63.7956 66.0251 63.7956 66.2966V68.4238H63.2092V66.3193C63.2092 66.0804 63.1864 65.9024 63.1408 65.7851C63.0952 65.6657 63.0138 65.5712 62.8965 65.5017C62.7814 65.43 62.6456 65.3941 62.4892 65.3941C62.2395 65.3941 62.0234 65.4734 61.841 65.6319C61.6607 65.7905 61.5706 66.0914 61.5706 66.5344V68.4238H60.9842ZM66.9426 68.4238V67.9873C66.7233 68.3304 66.4008 68.502 65.9751 68.502C65.6992 68.502 65.4451 68.4261 65.2128 68.2741C64.9825 68.122 64.8034 67.9103 64.6752 67.6388C64.5493 67.3652 64.4863 67.0512 64.4863 66.6972C64.4863 66.3519 64.5438 66.0392 64.6589 65.7591C64.774 65.4767 64.9467 65.2606 65.1769 65.1108C65.4071 64.9609 65.6645 64.886 65.949 64.886C66.1575 64.886 66.3432 64.9305 66.5061 65.0196C66.669 65.1063 66.8015 65.2204 66.9035 65.3616V63.6479H67.4867V68.4238H66.9426ZM65.089 66.6972C65.089 67.1403 65.1823 67.4716 65.3691 67.6909C65.5559 67.9103 65.7763 68.0199 66.0305 68.0199C66.2867 68.0199 66.5039 67.9156 66.682 67.7071C66.8623 67.4965 66.9524 67.1762 66.9524 66.7462C66.9524 66.2727 66.8612 65.9251 66.6788 65.7036C66.4963 65.4821 66.2715 65.3713 66.0044 65.3713C65.7438 65.3713 65.5255 65.4777 65.3496 65.6906C65.1758 65.9034 65.089 66.2389 65.089 66.6972Z" fill="#1A1A18"/>
</g>
<defs>
<clipPath id="clip0_5287_9344">
<rect width="126" height="70" fill="white"/>
</clipPath>
</defs>
</svg>
